<svg xmlns="http://www.w3.org/2000/svg" version="1.1" xmlns:xlink="http://www.w3.org/1999/xlink" xmlns:svgjs="http://svgjs.dev/svgjs" width="1000" height="1000" viewBox="0 0 1000 1000"><rect width="1000" height="1000" fill="#000000"></rect><g transform="matrix(0.7,0,0,0.7,149.57575757575756,310.4508162874914)"><svg viewBox="0 0 396 215" data-background-color="#ffffff" preserveAspectRatio="xMidYMid meet" height="542" width="1000" xmlns="http://www.w3.org/2000/svg" xmlns:xlink="http://www.w3.org/1999/xlink"><g id="tight-bounds" transform="matrix(1,0,0,1,0.2400000000000091,-0.08546521299595611)"><svg viewBox="0 0 395.52 215.1709304259919" height="215.1709304259919" width="395.52"><g><svg viewBox="0 0 395.52 215.1709304259919" height="215.1709304259919" width="395.52"><g transform="matrix(1,0,0,1,0,130.15145389316424)"><svg viewBox="0 0 395.52 85.01947653282765" height="85.01947653282765" width="395.52"><g id="textblocktransform"><svg viewBox="0 0 395.52 85.01947653282765" height="85.01947653282765" width="395.52" id="textblock"><g><svg viewBox="0 0 395.52 53.60365867261572" height="53.60365867261572" width="395.52"><g transform="matrix(1,0,0,1,0,0)"><svg width="395.52" viewBox="5.42 -40.5 393.94 53.39" height="53.60365867261572" data-palette-color="#636365"><path d="M5.42 0L5.42-38.16 39.55-38.16 39.55-31.37 13.16-31.37 13.16-21.39 35.57-21.39 35.57-15.01 13.16-15.01 13.16 0 5.42 0ZM49.92-32.74L49.92-32.74Q48.85-32.74 47.98-33.04 47.12-33.35 46.51-33.87 45.9-34.4 45.57-35.1 45.24-35.79 45.24-36.57L45.24-36.57Q45.24-37.38 45.57-38.07 45.9-38.77 46.51-39.28 47.12-39.79 47.98-40.1 48.85-40.41 49.92-40.41L49.92-40.41Q51.02-40.41 51.89-40.1 52.76-39.79 53.37-39.28 53.98-38.77 54.31-38.07 54.64-37.38 54.64-36.57L54.64-36.57Q54.64-35.79 54.31-35.1 53.98-34.4 53.37-33.87 52.76-33.35 51.89-33.04 51.02-32.74 49.92-32.74ZM46.31 0L46.31-28.81 53.54-28.81 53.54 0 46.31 0ZM62.79 0L62.79-28.81 70.01-28.81 70.01-26.37Q72.9-28 75.52-28.66 78.14-29.32 80.66-29.32L80.66-29.32Q83.95-29.32 86.76-28.36 89.57-27.39 91.62-25.49 93.67-23.58 94.83-20.74 95.99-17.9 95.99-14.16L95.99-14.16 95.99 0 88.79 0 88.79-12.99Q88.79-15.36 88.12-17.22 87.45-19.09 86.19-20.37 84.93-21.66 83.14-22.33 81.34-23 79.12-23L79.12-23Q77.95-23 76.72-22.75 75.48-22.51 74.3-22.06 73.12-21.61 72.02-20.94 70.92-20.26 70.01-19.41L70.01-19.41 70.01 0 62.79 0ZM102.63-14.28L102.63-14.28Q102.63-17.72 103.92-20.5 105.22-23.27 107.5-25.23 109.78-27.2 112.92-28.26 116.06-29.32 119.72-29.32L119.72-29.32Q121.28-29.32 122.81-29.13 124.33-28.93 125.74-28.59 127.14-28.25 128.37-27.77 129.61-27.29 130.56-26.73L130.56-26.73 130.56-40.5 137.79-40.5 137.79 0 130.56 0 130.56-2.71Q129.61-2.05 128.31-1.46 127.02-0.88 125.53-0.44 124.04 0 122.44 0.26 120.84 0.51 119.28 0.51L119.28 0.51Q115.62 0.51 112.55-0.56 109.49-1.64 107.29-3.59 105.1-5.54 103.86-8.26 102.63-10.99 102.63-14.28ZM110.22-14.28L110.22-14.28Q110.22-12.55 110.92-11.01 111.61-9.47 112.92-8.31 114.23-7.15 116.07-6.48 117.91-5.81 120.21-5.81L120.21-5.81Q121.67-5.81 123.14-6.09 124.6-6.37 125.96-6.88 127.31-7.4 128.5-8.13 129.68-8.86 130.56-9.77L130.56-9.77 130.56-19.75Q129.46-20.63 128.24-21.24 127.02-21.85 125.75-22.24 124.48-22.63 123.19-22.81 121.89-23 120.67-23L120.67-23Q118.18-23 116.24-22.33 114.3-21.66 112.97-20.48 111.64-19.31 110.93-17.72 110.22-16.14 110.22-14.28ZM147.55 0L147.55-38.16 155.29-38.16 169.16-24.24 183.02-38.16 190.76-38.16 190.76 0 183.02 0 183.02-27.44 169.16-14.09 155.29-27.44 155.29 0 147.55 0ZM201.48 9.72L204.16 3.61Q205.29 4.35 206.6 4.91 207.92 5.47 209.35 5.83 210.78 6.2 212.27 6.38 213.76 6.57 215.22 6.57L215.22 6.57Q220.2 6.57 222.9 4.43 225.6 2.29 225.6-1.98L225.6-1.98 225.6-2.95Q224.65-2.29 223.46-1.75 222.28-1.2 220.92-0.81 219.57-0.42 218.07-0.21 216.56 0 215.03 0L215.03 0Q211.73 0 209.13-0.96 206.53-1.93 204.74-3.8 202.94-5.66 201.99-8.4 201.04-11.13 201.04-14.65L201.04-14.65 201.04-28.81 208.24-28.81 208.24-16.65Q208.24-11.43 210.23-8.95 212.22-6.47 216.52-6.47L216.52-6.47Q219.54-6.47 221.87-7.53 224.21-8.59 225.6-10.25L225.6-10.25 225.6-28.81 232.82-28.81 232.82-3.3Q232.82 0.83 231.65 3.87 230.48 6.91 228.25 8.91 226.01 10.91 222.77 11.9 219.52 12.89 215.39 12.89L215.39 12.89Q211.36 12.89 207.87 12.04 204.38 11.18 201.48 9.72L201.48 9.72ZM243.05 0L243.05-38.16 250.79-38.16 250.79-28.2 274.52-28.2 274.52-38.16 282.28-38.16 282.28 0 274.52 0 274.52-21.58 250.79-21.58 250.79 0 243.05 0ZM290.85-9.08L290.85-9.08Q290.85-11.16 291.75-12.87 292.66-14.58 294.46-15.81 296.27-17.04 298.97-17.71 301.67-18.38 305.26-18.38L305.26-18.38Q307.92-18.38 310.86-17.99 313.8-17.6 316.93-16.8L316.93-16.8Q316.8-18.16 316.1-19.32 315.39-20.48 314.13-21.33 312.87-22.17 311.1-22.63 309.33-23.1 307.09-23.1L307.09-23.1Q305.87-23.1 304.4-22.95 302.94-22.8 301.37-22.51 299.81-22.22 298.29-21.78 296.76-21.34 295.44-20.73L295.44-20.73 293.24-26.66Q294.88-27.25 296.75-27.73 298.62-28.22 300.57-28.58 302.52-28.93 304.47-29.13 306.43-29.32 308.26-29.32L308.26-29.32Q316.34-29.32 320.27-25.2 324.2-21.07 324.2-12.55L324.2-12.55 324.2 0 316.97 0 316.97-2.71Q315.85-2.05 314.52-1.46 313.19-0.88 311.63-0.44 310.07 0 308.27 0.26 306.48 0.51 304.47 0.51L304.47 0.51Q301.11 0.51 298.55-0.22 296-0.95 294.29-2.25 292.59-3.54 291.72-5.29 290.85-7.03 290.85-9.08ZM298.47-9.33L298.47-9.33Q298.47-8.62 298.84-7.97 299.2-7.32 300.01-6.82 300.81-6.32 302.07-6.02 303.33-5.71 305.11-5.71L305.11-5.71Q307.01-5.71 308.8-6.05 310.58-6.4 312.12-6.96 313.65-7.52 314.9-8.25 316.14-8.98 316.97-9.77L316.97-9.77 316.97-11.04Q315.31-11.5 313.69-11.82 312.07-12.13 310.59-12.32 309.11-12.5 307.81-12.57 306.5-12.65 305.52-12.65L305.52-12.65Q303.5-12.65 302.16-12.38 300.81-12.11 299.98-11.66 299.15-11.21 298.81-10.6 298.47-9.99 298.47-9.33ZM333.94 0L333.94-40.5 341.17-40.5 341.17 0 333.94 0ZM349.05-9.08L349.05-9.08Q349.05-11.16 349.95-12.87 350.86-14.58 352.66-15.81 354.47-17.04 357.17-17.71 359.87-18.38 363.45-18.38L363.45-18.38Q366.12-18.38 369.06-17.99 372-17.6 375.12-16.8L375.12-16.8Q375-18.16 374.29-19.32 373.59-20.48 372.33-21.33 371.07-22.17 369.3-22.63 367.53-23.1 365.29-23.1L365.29-23.1Q364.06-23.1 362.6-22.95 361.13-22.8 359.57-22.51 358.01-22.22 356.48-21.78 354.96-21.34 353.64-20.73L353.64-20.73 351.44-26.66Q353.08-27.25 354.95-27.73 356.81-28.22 358.77-28.58 360.72-28.93 362.67-29.13 364.63-29.32 366.46-29.32L366.46-29.32Q374.54-29.32 378.47-25.2 382.4-21.07 382.4-12.55L382.4-12.55 382.4 0 375.17 0 375.17-2.71Q374.05-2.05 372.72-1.46 371.39-0.88 369.83-0.44 368.26 0 366.47 0.26 364.67 0.51 362.67 0.51L362.67 0.51Q359.3 0.51 356.75-0.22 354.2-0.95 352.49-2.25 350.78-3.54 349.92-5.29 349.05-7.03 349.05-9.08ZM356.67-9.33L356.67-9.33Q356.67-8.62 357.03-7.97 357.4-7.32 358.21-6.82 359.01-6.32 360.27-6.02 361.53-5.71 363.31-5.71L363.31-5.71Q365.21-5.71 366.99-6.05 368.78-6.4 370.31-6.96 371.85-7.52 373.1-8.25 374.34-8.98 375.17-9.77L375.17-9.77 375.17-11.04Q373.51-11.5 371.89-11.82 370.27-12.13 368.79-12.32 367.31-12.5 366.01-12.57 364.7-12.65 363.72-12.65L363.72-12.65Q361.7-12.65 360.35-12.38 359.01-12.11 358.18-11.66 357.35-11.21 357.01-10.6 356.67-9.99 356.67-9.33ZM392.14 0L392.14-40.5 399.36-40.5 399.36 0 392.14 0Z" opacity="1" transform="matrix(1,0,0,1,0,0)" fill="#ffffff" class="wordmark-text-0" data-fill-palette-color="primary" id="text-0"></path></svg></g></svg></g><g transform="matrix(1,0,0,1,0,66.25819599741214)"><svg viewBox="0 0 395.52 18.7612805354155" height="18.7612805354155" width="395.52"><g transform="matrix(1,0,0,1,0,0)"><svg width="395.52" viewBox="3 -39.65 851.7 40.4" height="18.7612805354155" data-palette-color="#636365"><path d="M3-34.55L20.15-34.55 19.5-29.8 9.35-29.8 9.35-19.9 18.2-19.9 18.2-15.2 9.35-15.2 9.35-4.8 20.15-4.8 20.15 0 3 0 3-34.55ZM74.93-6.4Q74.93-5.1 75.28-4.48 75.63-3.85 76.43-3.45L76.43-3.45 75.18 0.65Q73.13 0.4 71.9-0.45 70.68-1.3 70.08-3.05L70.08-3.05Q67.78 0.75 63.63 0.75L63.63 0.75Q60.33 0.75 58.38-1.48 56.43-3.7 56.43-7.4L56.43-7.4Q56.43-11.7 59.1-13.95 61.78-16.2 66.88-16.2L66.88-16.2 68.93-16.2 68.93-18.05Q68.93-20.55 68.05-21.58 67.18-22.6 65.23-22.6L65.23-22.6Q62.88-22.6 59.38-21.3L59.38-21.3 57.98-25.3Q59.98-26.2 62.13-26.68 64.28-27.15 66.23-27.15L66.23-27.15Q74.93-27.15 74.93-18.35L74.93-18.35 74.93-6.4ZM65.28-3.7Q67.68-3.7 68.93-7L68.93-7 68.93-12.55 67.48-12.55Q64.93-12.55 63.75-11.4 62.58-10.25 62.58-7.85L62.58-7.85Q62.58-5.8 63.28-4.75 63.98-3.7 65.28-3.7L65.28-3.7ZM125.4-5L127.55-1.2Q125.1 0.75 121.8 0.75L121.8 0.75Q118.35 0.75 116.55-1.23 114.75-3.2 114.75-6.6L114.75-6.6 114.75-22 111.65-22 111.65-26.45 114.75-26.45 114.75-32.3 120.9-33.05 120.9-26.45 125.9-26.45 125.3-22 120.9-22 120.9-6.6Q120.9-4.2 122.95-4.2L122.95-4.2Q123.6-4.2 124.1-4.38 124.6-4.55 125.4-5L125.4-5ZM229.05-26.45L234.75-26.45 230.2 0 222.7 0 219.75-20.85 216.85 0 209.4 0 204.75-26.45 210.7-26.45 213.4-4.6 216.75-26.45 223-26.45 226.2-4.6 229.05-26.45ZM271.78-26.45L277.93-26.45 277.93 0 271.78 0 271.78-26.45ZM274.83-39.65Q276.48-39.65 277.5-38.6 278.53-37.55 278.53-35.9L278.53-35.9Q278.53-34.3 277.5-33.25 276.48-32.2 274.83-32.2L274.83-32.2Q273.18-32.2 272.15-33.25 271.13-34.3 271.13-35.9L271.13-35.9Q271.13-37.55 272.15-38.6 273.18-39.65 274.83-39.65L274.83-39.65ZM328.3-5L330.45-1.2Q328 0.75 324.7 0.75L324.7 0.75Q321.25 0.75 319.45-1.23 317.65-3.2 317.65-6.6L317.65-6.6 317.65-22 314.55-22 314.55-26.45 317.65-26.45 317.65-32.3 323.8-33.05 323.8-26.45 328.8-26.45 328.2-22 323.8-22 323.8-6.6Q323.8-4.2 325.85-4.2L325.85-4.2Q326.5-4.2 327-4.38 327.5-4.55 328.3-5L328.3-5ZM378.88-27.15Q381.73-27.15 383.38-25.1 385.03-23.05 385.03-19.6L385.03-19.6 385.03 0 378.88 0 378.88-18.9Q378.88-20.8 378.35-21.63 377.83-22.45 376.83-22.45L376.83-22.45Q374.73-22.45 372.68-18.5L372.68-18.5 372.68 0 366.53 0 366.53-37 372.68-37.65 372.68-23.3Q373.93-25.25 375.4-26.2 376.88-27.15 378.88-27.15L378.88-27.15ZM433.5-27.15Q438.5-27.15 441.28-23.65 444.05-20.15 444.05-13.25L444.05-13.25Q444.05-6.65 441.25-2.95 438.45 0.75 433.5 0.75L433.5 0.75Q428.55 0.75 425.75-2.88 422.95-6.5 422.95-13.25L422.95-13.25Q422.95-19.95 425.75-23.55 428.55-27.15 433.5-27.15L433.5-27.15ZM433.5-22.5Q431.35-22.5 430.35-20.38 429.35-18.25 429.35-13.25L429.35-13.25Q429.35-8.2 430.35-6.08 431.35-3.95 433.5-3.95L433.5-3.95Q435.65-3.95 436.65-6.08 437.65-8.2 437.65-13.25L437.65-13.25Q437.65-18.3 436.65-20.4 435.65-22.5 433.5-22.5L433.5-22.5ZM500.28-26.45L500.28 0 494.93 0 494.63-3.35Q493.38-1.3 491.83-0.28 490.28 0.75 488.23 0.75L488.23 0.75Q485.33 0.75 483.65-1.3 481.98-3.35 481.98-6.65L481.98-6.65 481.98-26.45 488.13-26.45 488.13-7Q488.13-3.9 490.23-3.9L490.23-3.9Q491.43-3.9 492.38-4.83 493.33-5.75 494.13-7.45L494.13-7.45 494.13-26.45 500.28-26.45ZM550.65-5L552.8-1.2Q550.35 0.75 547.05 0.75L547.05 0.75Q543.6 0.75 541.8-1.23 540-3.2 540-6.6L540-6.6 540-22 536.9-22 536.9-26.45 540-26.45 540-32.3 546.15-33.05 546.15-26.45 551.15-26.45 550.55-22 546.15-22 546.15-6.6Q546.15-4.2 548.2-4.2L548.2-4.2Q548.85-4.2 549.35-4.38 549.85-4.55 550.65-5L550.65-5ZM644.65-35.25Q647.5-35.25 649.75-34.23 652-33.2 654-31.25L654-31.25 650.8-27.95Q649.25-29.3 647.9-29.88 646.55-30.45 644.85-30.45L644.85-30.45Q641.55-30.45 639.68-27.5 637.8-24.55 637.8-17.3L637.8-17.3Q637.8-12.2 638.48-9.33 639.15-6.45 640.48-5.3 641.8-4.15 643.95-4.15L643.95-4.15Q646.2-4.15 648.05-5.4L648.05-5.4 648.05-14.75 644.15-14.75 643.5-19.5 654.1-19.5 654.1-2.6Q651.95-1.05 649.33-0.18 646.7 0.7 644 0.7L644 0.7Q637.55 0.7 634.35-3.68 631.15-8.05 631.15-17.3L631.15-17.3Q631.15-23.3 632.93-27.33 634.7-31.35 637.75-33.3 640.8-35.25 644.65-35.25L644.65-35.25ZM710.83-26.45L710.83 0 705.48 0 705.18-3.35Q703.93-1.3 702.38-0.28 700.83 0.75 698.78 0.75L698.78 0.75Q695.88 0.75 694.2-1.3 692.53-3.35 692.53-6.65L692.53-6.65 692.53-26.45 698.68-26.45 698.68-7Q698.68-3.9 700.78-3.9L700.78-3.9Q701.98-3.9 702.93-4.83 703.88-5.75 704.68-7.45L704.68-7.45 704.68-26.45 710.83-26.45ZM750.05-26.45L756.2-26.45 756.2 0 750.05 0 750.05-26.45ZM753.1-39.65Q754.75-39.65 755.78-38.6 756.8-37.55 756.8-35.9L756.8-35.9Q756.8-34.3 755.78-33.25 754.75-32.2 753.1-32.2L753.1-32.2Q751.45-32.2 750.43-33.25 749.4-34.3 749.4-35.9L749.4-35.9Q749.4-37.55 750.43-38.6 751.45-39.65 753.1-39.65L753.1-39.65ZM801.03 0.75Q798.33 0.75 796.75-0.93 795.18-2.6 795.18-5.4L795.18-5.4 795.18-37.05 801.33-37.7 801.33-5.65Q801.33-5 801.63-4.6 801.93-4.2 802.53-4.2L802.53-4.2Q802.88-4.2 803.2-4.3 803.53-4.4 803.63-4.4L803.63-4.4 804.83-0.2Q803.13 0.75 801.03 0.75L801.03 0.75ZM852.55-5L854.7-1.2Q852.25 0.75 848.95 0.75L848.95 0.75Q845.5 0.75 843.7-1.23 841.9-3.2 841.9-6.6L841.9-6.6 841.9-22 838.8-22 838.8-26.45 841.9-26.45 841.9-32.3 848.05-33.05 848.05-26.45 853.05-26.45 852.45-22 848.05-22 848.05-6.6Q848.05-4.2 850.1-4.2L850.1-4.2Q850.75-4.2 851.25-4.38 851.75-4.55 852.55-5L852.55-5Z" opacity="1" transform="matrix(1,0,0,1,0,0)" fill="#ffffff" class="slogan-text-1" data-fill-palette-color="secondary" id="text-1"></path></svg></g></svg></g></svg></g></svg></g><g transform="matrix(1,0,0,1,139.01154171581607,0)"><svg viewBox="0 0 117.49691656836782 117.49691656836782" height="117.49691656836782" width="117.49691656836782"><g><svg xmlns="http://www.w3.org/2000/svg" xmlns:xlink="http://www.w3.org/1999/xlink" version="1.1" x="0" y="0" viewBox="7.75 7.417 84.833 84.833" enable-background="new 0 0 100 100" xml:space="preserve" height="117.49691656836782" width="117.49691656836782" class="icon-icon-0" data-fill-palette-color="accent" id="icon-0"><g fill="#636365" data-fill-palette-color="accent"><path d="M7.75 7.417V92.25h84.833V7.417H7.75zM90.083 89.75H10.25V9.917h79.833V89.75z" fill="#ffffff" data-fill-palette-color="accent"></path><path d="M50 78.504c10.64 0 20.319-5.864 25.261-15.303l1.854-3.542-3.542 1.854c-3.748 1.963-7.799 2.958-12.041 2.958-14.338 0-26.004-11.665-26.004-26.004 0-4.242 0.995-8.293 2.958-12.042l1.854-3.542-3.542 1.854C27.36 29.682 21.496 39.361 21.496 50 21.496 65.717 34.283 78.504 50 78.504zM34.643 29.016c-1.063 3.027-1.615 6.235-1.615 9.452 0 15.717 12.787 28.504 28.504 28.504 3.217 0 6.425-0.553 9.452-1.615C66.128 72.005 58.392 76.004 50 76.004c-14.338 0-26.004-11.665-26.004-26.004C23.996 41.61 27.995 33.873 34.643 29.016z" fill="#ffffff" data-fill-palette-color="accent"></path><path d="M49.819 54.268l9.761-7.092 9.761 7.092-3.729-11.474 9.761-7.091H63.309L59.58 24.229l-3.729 11.473H43.788l9.76 7.091L49.819 54.268zM51.482 38.202h6.186l1.912-5.884 1.912 5.884h6.186l-5.005 3.636 1.912 5.884-5.005-3.636-5.005 3.636 1.912-5.884L51.482 38.202z" fill="#ffffff" data-fill-palette-color="accent"></path><path d="M22.553 85.094l0.086 1.156h55.887l0.086-1.156c0.277-3.696 3.153-6.629 6.838-6.975l1.134-0.105V22.319l-1.134-0.106c-3.915-0.366-6.867-3.611-6.867-7.547v-1.25h-56v1.25c0 4.182-3.402 7.583-7.583 7.583h-1.25v55.833H15C18.941 78.083 22.258 81.162 22.553 85.094zM16.25 24.673c4.563-0.566 8.19-4.193 8.756-8.756h51.152c0.522 4.282 3.697 7.739 7.926 8.616v51.268c-3.973 0.829-7.05 3.961-7.812 7.949H24.891c-0.825-4.257-4.346-7.548-8.642-8.089V24.673z" fill="#ffffff" data-fill-palette-color="accent"></path><polygon points="16.25,15.917 21,15.917 21,13.417 13.75,13.417 13.75,20.333 16.25,20.333  " fill="#ffffff" data-fill-palette-color="accent"></polygon><polygon points="84.084,20.333 86.584,20.333 86.584,13.417 79.334,13.417 79.334,15.917 84.084,15.917  " fill="#ffffff" data-fill-palette-color="accent"></polygon><polygon points="21,83.75 16.25,83.75 16.25,79.332 13.75,79.332 13.75,86.25 21,86.25  " fill="#ffffff" data-fill-palette-color="accent"></polygon><polygon points="84.084,83.75 79.334,83.75 79.334,86.25 86.584,86.25 86.584,79.332 84.084,79.332  " fill="#ffffff" data-fill-palette-color="accent"></polygon></g></svg></g></svg></g><g></g></svg></g><defs></defs></svg><rect width="395.52" height="215.1709304259919" fill="none" stroke="none" visibility="hidden"></rect></g></svg></g></svg>