<svg xmlns="http://www.w3.org/2000/svg" version="1.1" xmlns:xlink="http://www.w3.org/1999/xlink" xmlns:svgjs="http://svgjs.dev/svgjs" width="1000" height="1000" viewBox="0 0 1000 1000"><rect width="1000" height="1000" fill="#ffffff"></rect><g transform="matrix(0.7,0,0,0.7,149.57575757575756,425.8398530726961)"><svg viewBox="0 0 396 84" data-background-color="#ffffff" preserveAspectRatio="xMidYMid meet" height="212" width="1000" xmlns="http://www.w3.org/2000/svg" xmlns:xlink="http://www.w3.org/1999/xlink"><g id="tight-bounds" transform="matrix(1,0,0,1,0.2400000000000091,-0.022558343035512962)"><svg viewBox="0 0 395.52 84.04511668607101" height="84.04511668607101" width="395.52"><g><svg viewBox="0 0 540.5195778497327 114.85646994206775" height="84.04511668607101" width="395.52"><g><rect width="4.834033258072236" height="99.73065407415433" x="408.1745373247964" y="7.5629079339567085" fill="#636365" opacity="1" stroke-width="0" stroke="transparent" fill-opacity="1" class="rect-qz-0" data-fill-palette-color="primary" rx="1%" id="qz-0" data-palette-color="#636365"></rect></g><g transform="matrix(1,0,0,1,0,15.873795773469567)"><svg viewBox="0 0 395.52 83.10887839512861" height="83.10887839512861" width="395.52"><g id="textblocktransform"><svg viewBox="0 0 395.52 83.10887839512861" height="83.10887839512861" width="395.52" id="textblock"><g><svg viewBox="0 0 395.52 53.60365867261572" height="53.60365867261572" width="395.52"><g transform="matrix(1,0,0,1,0,0)"><svg width="395.52" viewBox="5.42 -40.5 393.94 53.39" height="53.60365867261572" data-palette-color="#636365"><path d="M5.42 0L5.42-38.16 39.55-38.16 39.55-31.37 13.16-31.37 13.16-21.39 35.57-21.39 35.57-15.01 13.16-15.01 13.16 0 5.42 0ZM49.92-32.74L49.92-32.74Q48.85-32.74 47.98-33.04 47.12-33.35 46.51-33.87 45.9-34.4 45.57-35.1 45.24-35.79 45.24-36.57L45.24-36.57Q45.24-37.38 45.57-38.07 45.9-38.77 46.51-39.28 47.12-39.79 47.98-40.1 48.85-40.41 49.92-40.41L49.92-40.41Q51.02-40.41 51.89-40.1 52.76-39.79 53.37-39.28 53.98-38.77 54.31-38.07 54.64-37.38 54.64-36.57L54.64-36.57Q54.64-35.79 54.31-35.1 53.98-34.4 53.37-33.87 52.76-33.35 51.89-33.04 51.02-32.74 49.92-32.74ZM46.31 0L46.31-28.81 53.54-28.81 53.54 0 46.31 0ZM62.79 0L62.79-28.81 70.01-28.81 70.01-26.37Q72.9-28 75.52-28.66 78.14-29.32 80.66-29.32L80.66-29.32Q83.95-29.32 86.76-28.36 89.57-27.39 91.62-25.49 93.67-23.58 94.83-20.74 95.99-17.9 95.99-14.16L95.99-14.16 95.99 0 88.79 0 88.79-12.99Q88.79-15.36 88.12-17.22 87.45-19.09 86.19-20.37 84.93-21.66 83.14-22.33 81.34-23 79.12-23L79.12-23Q77.95-23 76.72-22.75 75.48-22.51 74.3-22.06 73.12-21.61 72.02-20.94 70.92-20.26 70.01-19.41L70.01-19.41 70.01 0 62.79 0ZM102.63-14.28L102.63-14.28Q102.63-17.72 103.92-20.5 105.22-23.27 107.5-25.23 109.78-27.2 112.92-28.26 116.06-29.32 119.72-29.32L119.72-29.32Q121.28-29.32 122.81-29.13 124.33-28.93 125.74-28.59 127.14-28.25 128.37-27.77 129.61-27.29 130.56-26.73L130.56-26.73 130.56-40.5 137.79-40.5 137.79 0 130.56 0 130.56-2.71Q129.61-2.05 128.31-1.46 127.02-0.88 125.53-0.44 124.04 0 122.44 0.26 120.84 0.51 119.28 0.51L119.28 0.51Q115.62 0.51 112.55-0.56 109.49-1.64 107.29-3.59 105.1-5.54 103.86-8.26 102.63-10.99 102.63-14.28ZM110.22-14.28L110.22-14.28Q110.22-12.55 110.92-11.01 111.61-9.47 112.92-8.31 114.23-7.15 116.07-6.48 117.91-5.81 120.21-5.81L120.21-5.81Q121.67-5.81 123.14-6.09 124.6-6.37 125.96-6.88 127.31-7.4 128.5-8.13 129.68-8.86 130.56-9.77L130.56-9.77 130.56-19.75Q129.46-20.63 128.24-21.24 127.02-21.85 125.75-22.24 124.48-22.63 123.19-22.81 121.89-23 120.67-23L120.67-23Q118.18-23 116.24-22.33 114.3-21.66 112.97-20.48 111.64-19.31 110.93-17.72 110.22-16.14 110.22-14.28ZM147.55 0L147.55-38.16 155.29-38.16 169.16-24.24 183.02-38.16 190.76-38.16 190.76 0 183.02 0 183.02-27.44 169.16-14.09 155.29-27.44 155.29 0 147.55 0ZM201.48 9.72L204.16 3.61Q205.29 4.35 206.6 4.91 207.92 5.47 209.35 5.83 210.78 6.2 212.27 6.38 213.76 6.57 215.22 6.57L215.22 6.57Q220.2 6.57 222.9 4.43 225.6 2.29 225.6-1.98L225.6-1.98 225.6-2.95Q224.65-2.29 223.46-1.75 222.28-1.2 220.92-0.81 219.57-0.42 218.07-0.21 216.56 0 215.03 0L215.03 0Q211.73 0 209.13-0.96 206.53-1.93 204.74-3.8 202.94-5.66 201.99-8.4 201.04-11.13 201.04-14.65L201.04-14.65 201.04-28.81 208.24-28.81 208.24-16.65Q208.24-11.43 210.23-8.95 212.22-6.47 216.52-6.47L216.52-6.47Q219.54-6.47 221.87-7.53 224.21-8.59 225.6-10.25L225.6-10.25 225.6-28.81 232.82-28.81 232.82-3.3Q232.82 0.83 231.65 3.87 230.48 6.91 228.25 8.91 226.01 10.91 222.77 11.9 219.52 12.89 215.39 12.89L215.39 12.89Q211.36 12.89 207.87 12.04 204.38 11.18 201.48 9.72L201.48 9.72ZM243.05 0L243.05-38.16 250.79-38.16 250.79-28.2 274.52-28.2 274.52-38.16 282.28-38.16 282.28 0 274.52 0 274.52-21.58 250.79-21.58 250.79 0 243.05 0ZM290.85-9.08L290.85-9.08Q290.85-11.16 291.75-12.87 292.66-14.58 294.46-15.81 296.27-17.04 298.97-17.71 301.67-18.38 305.26-18.38L305.26-18.38Q307.92-18.38 310.86-17.99 313.8-17.6 316.93-16.8L316.93-16.8Q316.8-18.16 316.1-19.32 315.39-20.48 314.13-21.33 312.87-22.17 311.1-22.63 309.33-23.1 307.09-23.1L307.09-23.1Q305.87-23.1 304.4-22.95 302.94-22.8 301.37-22.51 299.81-22.22 298.29-21.78 296.76-21.34 295.44-20.73L295.44-20.73 293.24-26.66Q294.88-27.25 296.75-27.73 298.62-28.22 300.57-28.58 302.52-28.93 304.47-29.13 306.43-29.32 308.26-29.32L308.26-29.32Q316.34-29.32 320.27-25.2 324.2-21.07 324.2-12.55L324.2-12.55 324.2 0 316.97 0 316.97-2.71Q315.85-2.05 314.52-1.46 313.19-0.88 311.63-0.44 310.07 0 308.27 0.26 306.48 0.51 304.47 0.51L304.47 0.51Q301.11 0.51 298.55-0.22 296-0.95 294.29-2.25 292.59-3.54 291.72-5.29 290.85-7.03 290.85-9.08ZM298.47-9.33L298.47-9.33Q298.47-8.62 298.84-7.97 299.2-7.32 300.01-6.82 300.81-6.32 302.07-6.02 303.33-5.71 305.11-5.71L305.11-5.71Q307.01-5.71 308.8-6.05 310.58-6.4 312.12-6.96 313.65-7.52 314.9-8.25 316.14-8.98 316.97-9.77L316.97-9.77 316.97-11.04Q315.31-11.5 313.69-11.82 312.07-12.13 310.59-12.32 309.11-12.5 307.81-12.57 306.5-12.65 305.52-12.65L305.52-12.65Q303.5-12.65 302.16-12.38 300.81-12.11 299.98-11.66 299.15-11.21 298.81-10.6 298.47-9.99 298.47-9.33ZM333.94 0L333.94-40.5 341.17-40.5 341.17 0 333.94 0ZM349.05-9.08L349.05-9.08Q349.05-11.16 349.95-12.87 350.86-14.58 352.66-15.81 354.47-17.04 357.17-17.71 359.87-18.38 363.45-18.38L363.45-18.38Q366.12-18.38 369.06-17.99 372-17.6 375.12-16.8L375.12-16.8Q375-18.16 374.29-19.32 373.59-20.48 372.33-21.33 371.07-22.17 369.3-22.63 367.53-23.1 365.29-23.1L365.29-23.1Q364.06-23.1 362.6-22.95 361.13-22.8 359.57-22.51 358.01-22.22 356.48-21.78 354.96-21.34 353.64-20.73L353.64-20.73 351.44-26.66Q353.08-27.25 354.95-27.73 356.81-28.22 358.77-28.58 360.72-28.93 362.67-29.13 364.63-29.32 366.46-29.32L366.46-29.32Q374.54-29.32 378.47-25.2 382.4-21.07 382.4-12.55L382.4-12.55 382.4 0 375.17 0 375.17-2.71Q374.05-2.05 372.72-1.46 371.39-0.88 369.83-0.44 368.26 0 366.47 0.26 364.67 0.51 362.67 0.51L362.67 0.51Q359.3 0.51 356.75-0.22 354.2-0.95 352.49-2.25 350.78-3.54 349.92-5.29 349.05-7.03 349.05-9.08ZM356.67-9.33L356.67-9.33Q356.67-8.62 357.03-7.97 357.4-7.32 358.21-6.82 359.01-6.32 360.27-6.02 361.53-5.71 363.31-5.71L363.31-5.71Q365.21-5.71 366.99-6.05 368.78-6.4 370.31-6.96 371.85-7.52 373.1-8.25 374.34-8.98 375.17-9.77L375.17-9.77 375.17-11.04Q373.51-11.5 371.89-11.82 370.27-12.13 368.79-12.32 367.31-12.5 366.01-12.57 364.7-12.65 363.72-12.65L363.72-12.65Q361.7-12.65 360.35-12.38 359.01-12.11 358.18-11.66 357.35-11.21 357.01-10.6 356.67-9.99 356.67-9.33ZM392.14 0L392.14-40.5 399.36-40.5 399.36 0 392.14 0Z" opacity="1" transform="matrix(1,0,0,1,0,0)" fill="#636365" class="wordmark-text-0" data-fill-palette-color="primary" id="text-0"></path></svg></g></svg></g><g transform="matrix(1,0,0,1,264.0096,66.25819599741214)"><svg viewBox="0 0 131.51039999999998 16.850682397716458" height="16.850682397716458" width="131.51039999999998"><g transform="matrix(1,0,0,1,0,0)"><svg width="131.51039999999998" viewBox="3 -39.65 315.26 40.4" height="16.850682397716458" data-palette-color="#636365"><path d="M3-34.55L20.15-34.55 19.5-29.8 9.35-29.8 9.35-19.9 18.2-19.9 18.2-15.2 9.35-15.2 9.35-4.8 20.15-4.8 20.15 0 3 0 3-34.55ZM41.4-6.4Q41.4-5.1 41.75-4.48 42.1-3.85 42.9-3.45L42.9-3.45 41.65 0.65Q39.6 0.4 38.37-0.45 37.15-1.3 36.55-3.05L36.55-3.05Q34.25 0.75 30.1 0.75L30.1 0.75Q26.8 0.75 24.85-1.48 22.9-3.7 22.9-7.4L22.9-7.4Q22.9-11.7 25.57-13.95 28.25-16.2 33.35-16.2L33.35-16.2 35.4-16.2 35.4-18.05Q35.4-20.55 34.52-21.58 33.65-22.6 31.7-22.6L31.7-22.6Q29.35-22.6 25.85-21.3L25.85-21.3 24.45-25.3Q26.45-26.2 28.6-26.68 30.75-27.15 32.7-27.15L32.7-27.15Q41.4-27.15 41.4-18.35L41.4-18.35 41.4-6.4ZM31.75-3.7Q34.15-3.7 35.4-7L35.4-7 35.4-12.55 33.95-12.55Q31.4-12.55 30.22-11.4 29.05-10.25 29.05-7.85L29.05-7.85Q29.05-5.8 29.75-4.75 30.45-3.7 31.75-3.7L31.75-3.7ZM58.35-5L60.5-1.2Q58.05 0.75 54.75 0.75L54.75 0.75Q51.3 0.75 49.5-1.23 47.7-3.2 47.7-6.6L47.7-6.6 47.7-22 44.6-22 44.6-26.45 47.7-26.45 47.7-32.3 53.85-33.05 53.85-26.45 58.85-26.45 58.25-22 53.85-22 53.85-6.6Q53.85-4.2 55.9-4.2L55.9-4.2Q56.55-4.2 57.05-4.38 57.55-4.55 58.35-5L58.35-5ZM94.94-26.45L100.64-26.45 96.09 0 88.59 0 85.64-20.85 82.74 0 75.29 0 70.64-26.45 76.59-26.45 79.29-4.6 82.64-26.45 88.89-26.45 92.09-4.6 94.94-26.45ZM104.14-26.45L110.29-26.45 110.29 0 104.14 0 104.14-26.45ZM107.19-39.65Q108.84-39.65 109.86-38.6 110.89-37.55 110.89-35.9L110.89-35.9Q110.89-34.3 109.86-33.25 108.84-32.2 107.19-32.2L107.19-32.2Q105.54-32.2 104.51-33.25 103.49-34.3 103.49-35.9L103.49-35.9Q103.49-37.55 104.51-38.6 105.54-39.65 107.19-39.65L107.19-39.65ZM127.14-5L129.29-1.2Q126.84 0.75 123.54 0.75L123.54 0.75Q120.09 0.75 118.29-1.23 116.49-3.2 116.49-6.6L116.49-6.6 116.49-22 113.39-22 113.39-26.45 116.49-26.45 116.49-32.3 122.64-33.05 122.64-26.45 127.64-26.45 127.04-22 122.64-22 122.64-6.6Q122.64-4.2 124.69-4.2L124.69-4.2Q125.34-4.2 125.84-4.38 126.34-4.55 127.14-5L127.14-5ZM144.18-27.15Q147.03-27.15 148.68-25.1 150.33-23.05 150.33-19.6L150.33-19.6 150.33 0 144.18 0 144.18-18.9Q144.18-20.8 143.66-21.63 143.13-22.45 142.13-22.45L142.13-22.45Q140.03-22.45 137.98-18.5L137.98-18.5 137.98 0 131.83 0 131.83-37 137.98-37.65 137.98-23.3Q139.23-25.25 140.71-26.2 142.18-27.15 144.18-27.15L144.18-27.15ZM165.28-27.15Q170.28-27.15 173.06-23.65 175.83-20.15 175.83-13.25L175.83-13.25Q175.83-6.65 173.03-2.95 170.23 0.75 165.28 0.75L165.28 0.75Q160.33 0.75 157.53-2.88 154.73-6.5 154.73-13.25L154.73-13.25Q154.73-19.95 157.53-23.55 160.33-27.15 165.28-27.15L165.28-27.15ZM165.28-22.5Q163.13-22.5 162.13-20.38 161.13-18.25 161.13-13.25L161.13-13.25Q161.13-8.2 162.13-6.08 163.13-3.95 165.28-3.95L165.28-3.95Q167.43-3.95 168.43-6.08 169.43-8.2 169.43-13.25L169.43-13.25Q169.43-18.3 168.43-20.4 167.43-22.5 165.28-22.5L165.28-22.5ZM198.53-26.45L198.53 0 193.18 0 192.88-3.35Q191.63-1.3 190.08-0.28 188.53 0.75 186.48 0.75L186.48 0.75Q183.58 0.75 181.9-1.3 180.23-3.35 180.23-6.65L180.23-6.65 180.23-26.45 186.38-26.45 186.38-7Q186.38-3.9 188.48-3.9L188.48-3.9Q189.68-3.9 190.63-4.83 191.58-5.75 192.38-7.45L192.38-7.45 192.38-26.45 198.53-26.45ZM215.38-5L217.53-1.2Q215.08 0.75 211.78 0.75L211.78 0.75Q208.33 0.75 206.53-1.23 204.73-3.2 204.73-6.6L204.73-6.6 204.73-22 201.63-22 201.63-26.45 204.73-26.45 204.73-32.3 210.88-33.05 210.88-26.45 215.88-26.45 215.28-22 210.88-22 210.88-6.6Q210.88-4.2 212.93-4.2L212.93-4.2Q213.58-4.2 214.08-4.38 214.58-4.55 215.38-5L215.38-5ZM242.32-35.25Q245.17-35.25 247.42-34.23 249.67-33.2 251.67-31.25L251.67-31.25 248.47-27.95Q246.92-29.3 245.57-29.88 244.22-30.45 242.52-30.45L242.52-30.45Q239.22-30.45 237.35-27.5 235.47-24.55 235.47-17.3L235.47-17.3Q235.47-12.2 236.15-9.33 236.82-6.45 238.15-5.3 239.47-4.15 241.62-4.15L241.62-4.15Q243.87-4.15 245.72-5.4L245.72-5.4 245.72-14.75 241.82-14.75 241.17-19.5 251.77-19.5 251.77-2.6Q249.62-1.05 247-0.18 244.37 0.7 241.67 0.7L241.67 0.7Q235.22 0.7 232.02-3.68 228.82-8.05 228.82-17.3L228.82-17.3Q228.82-23.3 230.6-27.33 232.37-31.35 235.42-33.3 238.47-35.25 242.32-35.25L242.32-35.25ZM274.97-26.45L274.97 0 269.62 0 269.32-3.35Q268.07-1.3 266.52-0.28 264.97 0.75 262.92 0.75L262.92 0.75Q260.02 0.75 258.34-1.3 256.67-3.35 256.67-6.65L256.67-6.65 256.67-26.45 262.82-26.45 262.82-7Q262.82-3.9 264.92-3.9L264.92-3.9Q266.12-3.9 267.07-4.83 268.02-5.75 268.82-7.45L268.82-7.45 268.82-26.45 274.97-26.45ZM280.67-26.45L286.82-26.45 286.82 0 280.67 0 280.67-26.45ZM283.72-39.65Q285.37-39.65 286.39-38.6 287.42-37.55 287.42-35.9L287.42-35.9Q287.42-34.3 286.39-33.25 285.37-32.2 283.72-32.2L283.72-32.2Q282.07-32.2 281.04-33.25 280.02-34.3 280.02-35.9L280.02-35.9Q280.02-37.55 281.04-38.6 282.07-39.65 283.72-39.65L283.72-39.65ZM298.11 0.75Q295.41 0.75 293.84-0.93 292.26-2.6 292.26-5.4L292.26-5.4 292.26-37.05 298.41-37.7 298.41-5.65Q298.41-5 298.71-4.6 299.01-4.2 299.61-4.2L299.61-4.2Q299.96-4.2 300.29-4.3 300.61-4.4 300.71-4.4L300.71-4.4 301.91-0.2Q300.21 0.75 298.11 0.75L298.11 0.75ZM316.11-5L318.26-1.2Q315.81 0.75 312.51 0.75L312.51 0.75Q309.06 0.75 307.26-1.23 305.46-3.2 305.46-6.6L305.46-6.6 305.46-22 302.36-22 302.36-26.45 305.46-26.45 305.46-32.3 311.61-33.05 311.61-26.45 316.61-26.45 316.01-22 311.61-22 311.61-6.6Q311.61-4.2 313.66-4.2L313.66-4.2Q314.31-4.2 314.81-4.38 315.31-4.55 316.11-5L316.11-5Z" opacity="1" transform="matrix(1,0,0,1,0,0)" fill="#636365" class="slogan-text-1" data-fill-palette-color="secondary" id="text-1"></path></svg></g></svg></g></svg></g></svg></g><g transform="matrix(1,0,0,1,425.66310790766505,0)"><svg viewBox="0 0 114.85646994206775 114.85646994206775" height="114.85646994206775" width="114.85646994206775"><g><svg xmlns="http://www.w3.org/2000/svg" xmlns:xlink="http://www.w3.org/1999/xlink" version="1.1" x="0" y="0" viewBox="7.75 7.417 84.833 84.833" enable-background="new 0 0 100 100" xml:space="preserve" height="114.85646994206775" width="114.85646994206775" class="icon-icon-0" data-fill-palette-color="accent" id="icon-0"><g fill="#636365" data-fill-palette-color="accent"><path d="M7.75 7.417V92.25h84.833V7.417H7.75zM90.083 89.75H10.25V9.917h79.833V89.75z" fill="#636365" data-fill-palette-color="accent"></path><path d="M50 78.504c10.64 0 20.319-5.864 25.261-15.303l1.854-3.542-3.542 1.854c-3.748 1.963-7.799 2.958-12.041 2.958-14.338 0-26.004-11.665-26.004-26.004 0-4.242 0.995-8.293 2.958-12.042l1.854-3.542-3.542 1.854C27.36 29.682 21.496 39.361 21.496 50 21.496 65.717 34.283 78.504 50 78.504zM34.643 29.016c-1.063 3.027-1.615 6.235-1.615 9.452 0 15.717 12.787 28.504 28.504 28.504 3.217 0 6.425-0.553 9.452-1.615C66.128 72.005 58.392 76.004 50 76.004c-14.338 0-26.004-11.665-26.004-26.004C23.996 41.61 27.995 33.873 34.643 29.016z" fill="#636365" data-fill-palette-color="accent"></path><path d="M49.819 54.268l9.761-7.092 9.761 7.092-3.729-11.474 9.761-7.091H63.309L59.58 24.229l-3.729 11.473H43.788l9.76 7.091L49.819 54.268zM51.482 38.202h6.186l1.912-5.884 1.912 5.884h6.186l-5.005 3.636 1.912 5.884-5.005-3.636-5.005 3.636 1.912-5.884L51.482 38.202z" fill="#636365" data-fill-palette-color="accent"></path><path d="M22.553 85.094l0.086 1.156h55.887l0.086-1.156c0.277-3.696 3.153-6.629 6.838-6.975l1.134-0.105V22.319l-1.134-0.106c-3.915-0.366-6.867-3.611-6.867-7.547v-1.25h-56v1.25c0 4.182-3.402 7.583-7.583 7.583h-1.25v55.833H15C18.941 78.083 22.258 81.162 22.553 85.094zM16.25 24.673c4.563-0.566 8.19-4.193 8.756-8.756h51.152c0.522 4.282 3.697 7.739 7.926 8.616v51.268c-3.973 0.829-7.05 3.961-7.812 7.949H24.891c-0.825-4.257-4.346-7.548-8.642-8.089V24.673z" fill="#636365" data-fill-palette-color="accent"></path><polygon points="16.25,15.917 21,15.917 21,13.417 13.75,13.417 13.75,20.333 16.25,20.333  " fill="#636365" data-fill-palette-color="accent"></polygon><polygon points="84.084,20.333 86.584,20.333 86.584,13.417 79.334,13.417 79.334,15.917 84.084,15.917  " fill="#636365" data-fill-palette-color="accent"></polygon><polygon points="21,83.75 16.25,83.75 16.25,79.332 13.75,79.332 13.75,86.25 21,86.25  " fill="#636365" data-fill-palette-color="accent"></polygon><polygon points="84.084,83.75 79.334,83.75 79.334,86.25 86.584,86.25 86.584,79.332 84.084,79.332  " fill="#636365" data-fill-palette-color="accent"></polygon></g></svg></g></svg></g></svg></g><defs></defs></svg><rect width="395.52" height="84.04511668607101" fill="none" stroke="none" visibility="hidden"></rect></g></svg></g></svg>